<?xml version="1.0" encoding="UTF-8"?>
<svg xmlns="http://www.w3.org/2000/svg" xmlns:xlink="http://www.w3.org/1999/xlink" viewBox="0 0 16 16" width="16px" height="16px">
<g id="surface40324340">
<path style=" stroke:none;fill-rule:nonzero;fill:rgb(31.764707%,30.588236%,70.980394%);fill-opacity:1;" d="M 8 11.558594 C 3.4375 11.558594 0 10.066406 0 8 C 0 5.933594 3.4375 4.398438 8 4.398438 C 12.5625 4.398438 16 5.933594 16 8 C 16 10.066406 12.5625 11.558594 8 11.558594 Z M 8 5.574219 C 4.109375 5.574219 1.148438 6.878906 1.148438 8.023438 C 1.148438 9.171875 4.109375 10.425781 8 10.425781 C 11.890625 10.425781 14.851562 9.121094 14.851562 7.976562 C 14.851562 6.828125 11.890625 5.574219 8 5.574219 Z M 8 5.574219 "/>
<path style=" stroke:none;fill-rule:nonzero;fill:rgb(31.764707%,30.588236%,70.980394%);fill-opacity:1;" d="M 4.960938 15.199219 C 4.589844 15.199219 4.25 15.113281 3.949219 14.941406 C 3.460938 14.664062 3.113281 14.171875 2.9375 13.519531 C 2.476562 11.804688 3.21875 8.925781 4.820312 6.179688 C 6.703125 2.960938 9.203125 0.800781 11.039062 0.800781 C 11.410156 0.800781 11.75 0.886719 12.050781 1.058594 C 12.539062 1.335938 12.886719 1.828125 13.0625 2.480469 C 13.523438 4.195312 12.78125 7.074219 11.175781 9.820312 C 9.296875 13.039062 6.796875 15.199219 4.960938 15.199219 Z M 11.039062 2 C 9.882812 2 7.675781 3.679688 5.859375 6.785156 C 4.207031 9.609375 3.726562 11.949219 4.097656 13.207031 C 4.195312 13.546875 4.339844 13.78125 4.542969 13.902344 C 5.488281 14.441406 8.070312 12.761719 10.140625 9.214844 C 11.792969 6.390625 12.324219 4.101562 11.902344 2.792969 C 11.796875 2.457031 11.660156 2.21875 11.457031 2.101562 C 11.339844 2.035156 11.203125 2 11.039062 2 Z M 11.039062 2 "/>
<path style=" stroke:none;fill-rule:nonzero;fill:rgb(31.764707%,30.588236%,70.980394%);fill-opacity:1;" d="M 11.039062 15.199219 C 9.199219 15.199219 6.703125 13.035156 4.820312 9.820312 C 3.21875 7.074219 2.476562 4.195312 2.9375 2.480469 C 3.113281 1.828125 3.460938 1.335938 3.949219 1.058594 C 4.25 0.886719 4.589844 0.800781 4.960938 0.800781 C 6.796875 0.800781 9.296875 2.960938 11.175781 6.179688 C 12.78125 8.925781 13.519531 11.804688 13.0625 13.519531 C 12.886719 14.171875 12.539062 14.664062 12.050781 14.941406 C 11.75 15.113281 11.410156 15.199219 11.039062 15.199219 Z M 4.960938 2 C 4.796875 2 4.660156 2.03125 4.542969 2.097656 C 4.339844 2.21875 4.195312 2.453125 4.097656 2.792969 C 3.726562 4.074219 4.207031 6.390625 5.859375 9.214844 C 7.675781 12.320312 9.882812 14 11.039062 14 C 11.203125 14 11.339844 13.964844 11.457031 13.898438 C 11.660156 13.78125 11.808594 13.546875 11.902344 13.207031 C 12.25 11.949219 11.789062 9.609375 10.140625 6.785156 C 8.324219 3.675781 6.117188 2 4.960938 2 Z M 4.960938 2 "/>
<path style=" stroke:none;fill-rule:nonzero;fill:rgb(54.509807%,71.764708%,94.117647%);fill-opacity:1;" d="M 9.398438 8 C 9.398438 8.773438 8.773438 9.398438 8 9.398438 C 7.226562 9.398438 6.601562 8.773438 6.601562 8 C 6.601562 7.226562 7.226562 6.601562 8 6.601562 C 8.773438 6.601562 9.398438 7.226562 9.398438 8 Z M 9.398438 8 "/>
<path style=" stroke:none;fill-rule:nonzero;fill:rgb(31.764707%,30.588236%,70.980394%);fill-opacity:1;" d="M 8 9.601562 C 7.117188 9.601562 6.398438 8.882812 6.398438 8 C 6.398438 7.117188 7.117188 6.398438 8 6.398438 C 8.882812 6.398438 9.601562 7.117188 9.601562 8 C 9.601562 8.882812 8.882812 9.601562 8 9.601562 Z M 8 6.800781 C 7.339844 6.800781 6.800781 7.339844 6.800781 8 C 6.800781 8.660156 7.339844 9.199219 8 9.199219 C 8.660156 9.199219 9.199219 8.660156 9.199219 8 C 9.199219 7.339844 8.660156 6.800781 8 6.800781 Z M 8 6.800781 "/>
<path style=" stroke:none;fill-rule:nonzero;fill:rgb(54.509807%,71.764708%,94.117647%);fill-opacity:1;" d="M 8 11.226562 C 3.738281 11.226562 0.398438 9.808594 0.398438 8 C 0.398438 6.191406 3.738281 4.773438 8 4.773438 C 12.261719 4.773438 15.601562 6.191406 15.601562 8 C 15.601562 9.808594 12.261719 11.226562 8 11.226562 Z M 8 5.171875 C 4.097656 5.171875 0.800781 6.46875 0.800781 8 C 0.800781 9.53125 4.097656 10.828125 8 10.828125 C 11.902344 10.828125 15.199219 9.53125 15.199219 8 C 15.199219 6.46875 11.902344 5.171875 8 5.171875 Z M 8 5.171875 "/>
<path style=" stroke:none;fill-rule:nonzero;fill:rgb(54.509807%,71.764708%,94.117647%);fill-opacity:1;" d="M 4.960938 14.800781 C 4.660156 14.800781 4.386719 14.730469 4.148438 14.59375 C 3.75 14.367188 3.472656 13.972656 3.324219 13.414062 C 2.890625 11.800781 3.613281 9.039062 5.167969 6.382812 C 6.953125 3.332031 9.367188 1.203125 11.039062 1.203125 C 11.339844 1.203125 11.613281 1.269531 11.851562 1.40625 C 12.25 1.632812 12.527344 2.03125 12.675781 2.585938 C 13.109375 4.199219 12.386719 6.960938 10.832031 9.617188 C 9.046875 12.667969 6.632812 14.800781 4.960938 14.800781 Z M 11.039062 1.601562 C 9.527344 1.601562 7.203125 3.695312 5.511719 6.585938 C 4.035156 9.113281 3.308594 11.816406 3.710938 13.3125 C 3.828125 13.761719 4.042969 14.074219 4.347656 14.25 C 4.523438 14.347656 4.730469 14.398438 4.960938 14.398438 C 6.472656 14.398438 8.796875 12.304688 10.484375 9.414062 C 11.964844 6.886719 12.691406 4.179688 12.289062 2.6875 C 12.167969 2.238281 11.957031 1.925781 11.652344 1.753906 C 11.476562 1.652344 11.269531 1.601562 11.039062 1.601562 Z M 11.039062 1.601562 "/>
<path style=" stroke:none;fill-rule:nonzero;fill:rgb(54.509807%,71.764708%,94.117647%);fill-opacity:1;" d="M 11.039062 14.796875 C 9.363281 14.796875 6.949219 12.667969 5.167969 9.617188 C 3.613281 6.960938 2.890625 4.199219 3.324219 2.585938 C 3.472656 2.027344 3.75 1.632812 4.148438 1.40625 C 4.386719 1.269531 4.660156 1.199219 4.960938 1.199219 C 6.632812 1.199219 9.046875 3.332031 10.832031 6.382812 C 12.386719 9.039062 13.109375 11.800781 12.675781 13.414062 C 12.527344 13.972656 12.25 14.367188 11.851562 14.59375 C 11.613281 14.730469 11.339844 14.796875 11.039062 14.796875 Z M 4.960938 1.601562 C 4.730469 1.601562 4.523438 1.652344 4.347656 1.75 C 4.042969 1.925781 3.828125 2.238281 3.710938 2.6875 C 3.308594 4.183594 4.035156 6.886719 5.511719 9.414062 C 7.199219 12.304688 9.523438 14.398438 11.039062 14.398438 C 11.269531 14.398438 11.476562 14.347656 11.652344 14.246094 C 11.957031 14.074219 12.167969 13.761719 12.289062 13.3125 C 12.691406 11.816406 11.964844 9.113281 10.488281 6.585938 C 8.796875 3.695312 6.476562 1.601562 4.960938 1.601562 Z M 4.960938 1.601562 "/>
</g>
</svg>
